<?xml version="1.0" encoding="UTF-8"?>
<svg width="180" height="180" viewBox="0 0 180 180" xmlns="http://www.w3.org/2000/svg">
  <defs>
    <linearGradient id="bg" x1="0%" y1="0%" x2="100%" y2="100%">
      <stop offset="0%" style="stop-color:#4a90e2;stop-opacity:1" />
      <stop offset="100%" style="stop-color:#357abd;stop-opacity:1" />
    </linearGradient>
    <linearGradient id="drum" x1="0%" y1="0%" x2="100%" y2="100%">
      <stop offset="0%" style="stop-color:#ffffff;stop-opacity:1" />
      <stop offset="100%" style="stop-color:#f0f0f0;stop-opacity:1" />
    </linearGradient>
  </defs>
  
  <!-- Fondo circular -->
  <circle cx="90" cy="90" r="81" fill="url(#bg)" stroke="#2d2d2d" stroke-width="3.6"/>
  
  <!-- Tambor principal -->
  <circle cx="90" cy="90" r="54" fill="url(#drum)" stroke="#2d2d2d" stroke-width="1.8"/>
  
  <!-- Detalles del tambor -->
  <circle cx="90" cy="90" r="43.2" fill="none" stroke="#4a90e2" stroke-width="1.44"/>
  <circle cx="90" cy="90" r="32.4" fill="none" stroke="#4a90e2" stroke-width="1"/>
  
  <!-- Baquetas -->
  <line x1="57.6" y1="57.6" x2="73.8" y2="73.8" stroke="#8B4513" stroke-width="7.2" stroke-linecap="round"/>
  <line x1="122.4" y1="57.6" x2="106.2" y2="73.8" stroke="#8B4513" stroke-width="7.2" stroke-linecap="round"/>
  
  <!-- Notas musicales -->
  <g fill="#4a90e2">
    <circle cx="41.4" cy="41.4" r="3.6"/>
    <rect x="39.4" y="45" width="7.2" height="7.2"/>
    <circle cx="138.6" cy="41.4" r="3.6"/>
    <rect x="136.6" y="45" width="7.2" height="7.2"/>
  </g>
  
  <!-- Ondas de sonido -->
  <g fill="none" stroke="#4a90e2" stroke-width="1" opacity="0.6">
    <path d="M 28.8 90 Q 41.4 75.6 55.8 90 Q 70.2 104.4 84.6 90"/>
    <path d="M 95.4 90 Q 109.8 75.6 124.19999999999999 90 Q 138.6 104.4 151.2 90"/>
  </g>
</svg>