<?xml version="1.0" encoding="UTF-8"?>
<svg width="32" height="32" viewBox="0 0 32 32" xmlns="http://www.w3.org/2000/svg">
  <defs>
    <linearGradient id="bg" x1="0%" y1="0%" x2="100%" y2="100%">
      <stop offset="0%" style="stop-color:#4a90e2;stop-opacity:1" />
      <stop offset="100%" style="stop-color:#357abd;stop-opacity:1" />
    </linearGradient>
    <linearGradient id="drum" x1="0%" y1="0%" x2="100%" y2="100%">
      <stop offset="0%" style="stop-color:#ffffff;stop-opacity:1" />
      <stop offset="100%" style="stop-color:#f0f0f0;stop-opacity:1" />
    </linearGradient>
  </defs>
  
  <!-- Fondo circular -->
  <circle cx="16" cy="16" r="14.4" fill="url(#bg)" stroke="#2d2d2d" stroke-width="1"/>
  
  <!-- Tambor principal -->
  <circle cx="16" cy="16" r="9.6" fill="url(#drum)" stroke="#2d2d2d" stroke-width="1"/>
  
  <!-- Detalles del tambor -->
  <circle cx="16" cy="16" r="7.68" fill="none" stroke="#4a90e2" stroke-width="1"/>
  <circle cx="16" cy="16" r="5.76" fill="none" stroke="#4a90e2" stroke-width="1"/>
  
  <!-- Baquetas -->
  <line x1="10.24" y1="10.24" x2="13.120000000000001" y2="13.120000000000001" stroke="#8B4513" stroke-width="2" stroke-linecap="round"/>
  <line x1="21.759999999999998" y1="10.24" x2="18.88" y2="13.120000000000001" stroke="#8B4513" stroke-width="2" stroke-linecap="round"/>
  
  <!-- Notas musicales -->
  <g fill="#4a90e2">
    <circle cx="7.36" cy="7.36" r="2"/>
    <rect x="5.36" y="8" width="2" height="5"/>
    <circle cx="24.64" cy="7.36" r="2"/>
    <rect x="22.64" y="8" width="2" height="5"/>
  </g>
  
  <!-- Ondas de sonido -->
  <g fill="none" stroke="#4a90e2" stroke-width="1" opacity="0.6">
    <path d="M 5.12 16 Q 7.36 13.44 9.92 16 Q 12.48 18.56 15.04 16"/>
    <path d="M 16.96 16 Q 19.52 13.44 22.08 16 Q 24.64 18.56 26.88 16"/>
  </g>
</svg>