<?xml version="1.0" encoding="UTF-8"?>
<svg width="96" height="96" viewBox="0 0 96 96" xmlns="http://www.w3.org/2000/svg">
  <defs>
    <linearGradient id="bg" x1="0%" y1="0%" x2="100%" y2="100%">
      <stop offset="0%" style="stop-color:#4a90e2;stop-opacity:1" />
      <stop offset="100%" style="stop-color:#357abd;stop-opacity:1" />
    </linearGradient>
    <linearGradient id="drum" x1="0%" y1="0%" x2="100%" y2="100%">
      <stop offset="0%" style="stop-color:#ffffff;stop-opacity:1" />
      <stop offset="100%" style="stop-color:#f0f0f0;stop-opacity:1" />
    </linearGradient>
  </defs>
  
  <!-- Fondo circular -->
  <circle cx="48" cy="48" r="43.2" fill="url(#bg)" stroke="#2d2d2d" stroke-width="1.92"/>
  
  <!-- Tambor principal -->
  <circle cx="48" cy="48" r="28.799999999999997" fill="url(#drum)" stroke="#2d2d2d" stroke-width="1"/>
  
  <!-- Detalles del tambor -->
  <circle cx="48" cy="48" r="23.04" fill="none" stroke="#4a90e2" stroke-width="1"/>
  <circle cx="48" cy="48" r="17.279999999999998" fill="none" stroke="#4a90e2" stroke-width="1"/>
  
  <!-- Baquetas -->
  <line x1="30.720000000000002" y1="30.720000000000002" x2="39.36" y2="39.36" stroke="#8B4513" stroke-width="3.84" stroke-linecap="round"/>
  <line x1="65.28" y1="30.720000000000002" x2="56.64" y2="39.36" stroke="#8B4513" stroke-width="3.84" stroke-linecap="round"/>
  
  <!-- Notas musicales -->
  <g fill="#4a90e2">
    <circle cx="22.080000000000002" cy="22.080000000000002" r="2"/>
    <rect x="20.080000000000002" y="24" width="3.84" height="5"/>
    <circle cx="73.92" cy="22.080000000000002" r="2"/>
    <rect x="71.92" y="24" width="3.84" height="5"/>
  </g>
  
  <!-- Ondas de sonido -->
  <g fill="none" stroke="#4a90e2" stroke-width="1" opacity="0.6">
    <path d="M 15.36 48 Q 22.080000000000002 40.32 29.759999999999998 48 Q 37.44 55.68 45.12 48"/>
    <path d="M 50.88 48 Q 58.56 40.32 66.24 48 Q 73.92 55.68 80.64 48"/>
  </g>
</svg>