<?xml version="1.0" encoding="UTF-8"?>
<svg width="16" height="16" viewBox="0 0 16 16" xmlns="http://www.w3.org/2000/svg">
  <defs>
    <linearGradient id="bg" x1="0%" y1="0%" x2="100%" y2="100%">
      <stop offset="0%" style="stop-color:#4a90e2;stop-opacity:1" />
      <stop offset="100%" style="stop-color:#357abd;stop-opacity:1" />
    </linearGradient>
    <linearGradient id="drum" x1="0%" y1="0%" x2="100%" y2="100%">
      <stop offset="0%" style="stop-color:#ffffff;stop-opacity:1" />
      <stop offset="100%" style="stop-color:#f0f0f0;stop-opacity:1" />
    </linearGradient>
  </defs>
  
  <!-- Fondo circular -->
  <circle cx="8" cy="8" r="7.2" fill="url(#bg)" stroke="#2d2d2d" stroke-width="1"/>
  
  <!-- Tambor principal -->
  <circle cx="8" cy="8" r="4.8" fill="url(#drum)" stroke="#2d2d2d" stroke-width="1"/>
  
  <!-- Detalles del tambor -->
  <circle cx="8" cy="8" r="3.84" fill="none" stroke="#4a90e2" stroke-width="1"/>
  <circle cx="8" cy="8" r="2.88" fill="none" stroke="#4a90e2" stroke-width="1"/>
  
  <!-- Baquetas -->
  <line x1="5.12" y1="5.12" x2="6.5600000000000005" y2="6.5600000000000005" stroke="#8B4513" stroke-width="2" stroke-linecap="round"/>
  <line x1="10.879999999999999" y1="5.12" x2="9.44" y2="6.5600000000000005" stroke="#8B4513" stroke-width="2" stroke-linecap="round"/>
  
  <!-- Notas musicales -->
  <g fill="#4a90e2">
    <circle cx="3.68" cy="3.68" r="2"/>
    <rect x="1.6800000000000002" y="4" width="2" height="5"/>
    <circle cx="12.32" cy="3.68" r="2"/>
    <rect x="10.32" y="4" width="2" height="5"/>
  </g>
  
  <!-- Ondas de sonido -->
  <g fill="none" stroke="#4a90e2" stroke-width="1" opacity="0.6">
    <path d="M 2.56 8 Q 3.68 6.72 4.96 8 Q 6.24 9.28 7.52 8"/>
    <path d="M 8.48 8 Q 9.76 6.72 11.04 8 Q 12.32 9.28 13.44 8"/>
  </g>
</svg>