<?xml version="1.0" encoding="UTF-8"?>
<svg width="72" height="72" viewBox="0 0 72 72" xmlns="http://www.w3.org/2000/svg">
  <defs>
    <linearGradient id="bg" x1="0%" y1="0%" x2="100%" y2="100%">
      <stop offset="0%" style="stop-color:#4a90e2;stop-opacity:1" />
      <stop offset="100%" style="stop-color:#357abd;stop-opacity:1" />
    </linearGradient>
    <linearGradient id="drum" x1="0%" y1="0%" x2="100%" y2="100%">
      <stop offset="0%" style="stop-color:#ffffff;stop-opacity:1" />
      <stop offset="100%" style="stop-color:#f0f0f0;stop-opacity:1" />
    </linearGradient>
  </defs>
  
  <!-- Fondo circular -->
  <circle cx="36" cy="36" r="32.4" fill="url(#bg)" stroke="#2d2d2d" stroke-width="1.44"/>
  
  <!-- Tambor principal -->
  <circle cx="36" cy="36" r="21.599999999999998" fill="url(#drum)" stroke="#2d2d2d" stroke-width="1"/>
  
  <!-- Detalles del tambor -->
  <circle cx="36" cy="36" r="17.279999999999998" fill="none" stroke="#4a90e2" stroke-width="1"/>
  <circle cx="36" cy="36" r="12.959999999999999" fill="none" stroke="#4a90e2" stroke-width="1"/>
  
  <!-- Baquetas -->
  <line x1="23.04" y1="23.04" x2="29.52" y2="29.52" stroke="#8B4513" stroke-width="2.88" stroke-linecap="round"/>
  <line x1="48.96" y1="23.04" x2="42.48" y2="29.52" stroke="#8B4513" stroke-width="2.88" stroke-linecap="round"/>
  
  <!-- Notas musicales -->
  <g fill="#4a90e2">
    <circle cx="16.560000000000002" cy="16.560000000000002" r="2"/>
    <rect x="14.560000000000002" y="18" width="2.88" height="5"/>
    <circle cx="55.44" cy="16.560000000000002" r="2"/>
    <rect x="53.44" y="18" width="2.88" height="5"/>
  </g>
  
  <!-- Ondas de sonido -->
  <g fill="none" stroke="#4a90e2" stroke-width="1" opacity="0.6">
    <path d="M 11.52 36 Q 16.560000000000002 30.240000000000002 22.32 36 Q 28.080000000000002 41.76 33.839999999999996 36"/>
    <path d="M 38.160000000000004 36 Q 43.92 30.240000000000002 49.67999999999999 36 Q 55.44 41.76 60.48 36"/>
  </g>
</svg>