<?xml version="1.0" encoding="UTF-8"?>
<svg width="192" height="192" viewBox="0 0 192 192" xmlns="http://www.w3.org/2000/svg">
  <defs>
    <linearGradient id="bg" x1="0%" y1="0%" x2="100%" y2="100%">
      <stop offset="0%" style="stop-color:#4a90e2;stop-opacity:1" />
      <stop offset="100%" style="stop-color:#357abd;stop-opacity:1" />
    </linearGradient>
    <linearGradient id="drum" x1="0%" y1="0%" x2="100%" y2="100%">
      <stop offset="0%" style="stop-color:#ffffff;stop-opacity:1" />
      <stop offset="100%" style="stop-color:#f0f0f0;stop-opacity:1" />
    </linearGradient>
  </defs>
  
  <!-- Fondo circular -->
  <circle cx="96" cy="96" r="86.4" fill="url(#bg)" stroke="#2d2d2d" stroke-width="3.84"/>
  
  <!-- Tambor principal -->
  <circle cx="96" cy="96" r="57.599999999999994" fill="url(#drum)" stroke="#2d2d2d" stroke-width="1.92"/>
  
  <!-- Detalles del tambor -->
  <circle cx="96" cy="96" r="46.08" fill="none" stroke="#4a90e2" stroke-width="1.536"/>
  <circle cx="96" cy="96" r="34.559999999999995" fill="none" stroke="#4a90e2" stroke-width="1"/>
  
  <!-- Baquetas -->
  <line x1="61.440000000000005" y1="61.440000000000005" x2="78.72" y2="78.72" stroke="#8B4513" stroke-width="7.68" stroke-linecap="round"/>
  <line x1="130.56" y1="61.440000000000005" x2="113.28" y2="78.72" stroke="#8B4513" stroke-width="7.68" stroke-linecap="round"/>
  
  <!-- Notas musicales -->
  <g fill="#4a90e2">
    <circle cx="44.160000000000004" cy="44.160000000000004" r="3.84"/>
    <rect x="42.160000000000004" y="48" width="7.68" height="7.68"/>
    <circle cx="147.84" cy="44.160000000000004" r="3.84"/>
    <rect x="145.84" y="48" width="7.68" height="7.68"/>
  </g>
  
  <!-- Ondas de sonido -->
  <g fill="none" stroke="#4a90e2" stroke-width="1" opacity="0.6">
    <path d="M 30.72 96 Q 44.160000000000004 80.64 59.519999999999996 96 Q 74.88 111.36 90.24 96"/>
    <path d="M 101.76 96 Q 117.12 80.64 132.48 96 Q 147.84 111.36 161.28 96"/>
  </g>
</svg>