<?xml version="1.0" encoding="UTF-8"?>
<svg width="144" height="144" viewBox="0 0 144 144" xmlns="http://www.w3.org/2000/svg">
  <defs>
    <linearGradient id="bg" x1="0%" y1="0%" x2="100%" y2="100%">
      <stop offset="0%" style="stop-color:#4a90e2;stop-opacity:1" />
      <stop offset="100%" style="stop-color:#357abd;stop-opacity:1" />
    </linearGradient>
    <linearGradient id="drum" x1="0%" y1="0%" x2="100%" y2="100%">
      <stop offset="0%" style="stop-color:#ffffff;stop-opacity:1" />
      <stop offset="100%" style="stop-color:#f0f0f0;stop-opacity:1" />
    </linearGradient>
  </defs>
  
  <!-- Fondo circular -->
  <circle cx="72" cy="72" r="64.8" fill="url(#bg)" stroke="#2d2d2d" stroke-width="2.88"/>
  
  <!-- Tambor principal -->
  <circle cx="72" cy="72" r="43.199999999999996" fill="url(#drum)" stroke="#2d2d2d" stroke-width="1.44"/>
  
  <!-- Detalles del tambor -->
  <circle cx="72" cy="72" r="34.559999999999995" fill="none" stroke="#4a90e2" stroke-width="1.1520000000000001"/>
  <circle cx="72" cy="72" r="25.919999999999998" fill="none" stroke="#4a90e2" stroke-width="1"/>
  
  <!-- Baquetas -->
  <line x1="46.08" y1="46.08" x2="59.04" y2="59.04" stroke="#8B4513" stroke-width="5.76" stroke-linecap="round"/>
  <line x1="97.92" y1="46.08" x2="84.96" y2="59.04" stroke="#8B4513" stroke-width="5.76" stroke-linecap="round"/>
  
  <!-- Notas musicales -->
  <g fill="#4a90e2">
    <circle cx="33.120000000000005" cy="33.120000000000005" r="2.88"/>
    <rect x="31.120000000000005" y="36" width="5.76" height="5.76"/>
    <circle cx="110.88" cy="33.120000000000005" r="2.88"/>
    <rect x="108.88" y="36" width="5.76" height="5.76"/>
  </g>
  
  <!-- Ondas de sonido -->
  <g fill="none" stroke="#4a90e2" stroke-width="1" opacity="0.6">
    <path d="M 23.04 72 Q 33.120000000000005 60.480000000000004 44.64 72 Q 56.160000000000004 83.52 67.67999999999999 72"/>
    <path d="M 76.32000000000001 72 Q 87.84 60.480000000000004 99.35999999999999 72 Q 110.88 83.52 120.96 72"/>
  </g>
</svg>