<?xml version="1.0" encoding="UTF-8"?>
<svg width="128" height="128" viewBox="0 0 128 128" xmlns="http://www.w3.org/2000/svg">
  <defs>
    <linearGradient id="bg" x1="0%" y1="0%" x2="100%" y2="100%">
      <stop offset="0%" style="stop-color:#4a90e2;stop-opacity:1" />
      <stop offset="100%" style="stop-color:#357abd;stop-opacity:1" />
    </linearGradient>
    <linearGradient id="drum" x1="0%" y1="0%" x2="100%" y2="100%">
      <stop offset="0%" style="stop-color:#ffffff;stop-opacity:1" />
      <stop offset="100%" style="stop-color:#f0f0f0;stop-opacity:1" />
    </linearGradient>
  </defs>
  
  <!-- Fondo circular -->
  <circle cx="64" cy="64" r="57.6" fill="url(#bg)" stroke="#2d2d2d" stroke-width="2.56"/>
  
  <!-- Tambor principal -->
  <circle cx="64" cy="64" r="38.4" fill="url(#drum)" stroke="#2d2d2d" stroke-width="1.28"/>
  
  <!-- Detalles del tambor -->
  <circle cx="64" cy="64" r="30.72" fill="none" stroke="#4a90e2" stroke-width="1.024"/>
  <circle cx="64" cy="64" r="23.04" fill="none" stroke="#4a90e2" stroke-width="1"/>
  
  <!-- Baquetas -->
  <line x1="40.96" y1="40.96" x2="52.480000000000004" y2="52.480000000000004" stroke="#8B4513" stroke-width="5.12" stroke-linecap="round"/>
  <line x1="87.03999999999999" y1="40.96" x2="75.52" y2="52.480000000000004" stroke="#8B4513" stroke-width="5.12" stroke-linecap="round"/>
  
  <!-- Notas musicales -->
  <g fill="#4a90e2">
    <circle cx="29.44" cy="29.44" r="2.56"/>
    <rect x="27.44" y="32" width="5.12" height="5.12"/>
    <circle cx="98.56" cy="29.44" r="2.56"/>
    <rect x="96.56" y="32" width="5.12" height="5.12"/>
  </g>
  
  <!-- Ondas de sonido -->
  <g fill="none" stroke="#4a90e2" stroke-width="1" opacity="0.6">
    <path d="M 20.48 64 Q 29.44 53.76 39.68 64 Q 49.92 74.24 60.16 64"/>
    <path d="M 67.84 64 Q 78.08 53.76 88.32 64 Q 98.56 74.24 107.52 64"/>
  </g>
</svg>